<?xml version="1.0" encoding="iso-8859-1"?>
<!-- Generator: Adobe Illustrator 19.0.0, SVG Export Plug-In . SVG Version: 6.00 Build 0)  -->
<svg version="1.1" id="Layer_1" xmlns="http://www.w3.org/2000/svg" xmlns:xlink="http://www.w3.org/1999/xlink" x="0px" y="0px"
	 viewBox="0 0 512 512" style="enable-background:new 0 0 512 512;" xml:space="preserve">
<g>
	<path style="fill:#665247;" d="M350.609,378.435h-33.391c-9.217,0-16.696-7.473-16.696-16.696s7.479-16.696,16.696-16.696h33.391
		c9.206,0,16.696-7.49,16.696-16.696V161.391c0-27.619,22.468-50.087,50.087-50.087h77.913c9.217,0,16.696,7.473,16.696,16.696
		s-7.479,16.696-16.696,16.696h-77.913c-9.206,0-16.696,7.49-16.696,16.696v166.957
		C400.696,355.967,378.228,378.435,350.609,378.435z"/>
	<path style="fill:#665247;" d="M417.391,211.478H384c-9.217,0-16.696-7.473-16.696-16.696c0-9.223,7.479-16.696,16.696-16.696
		h33.391c9.206,0,16.696-7.49,16.696-16.696V128c0-9.223,7.479-16.696,16.696-16.696c9.217,0,16.696,7.473,16.696,16.696v33.391
		C467.478,189.01,445.01,211.478,417.391,211.478z"/>
</g>
<path style="fill:#EDF0F2;" d="M283.826,0H83.478C55.859,0,33.391,22.468,33.391,50.087v183.652h300.522V50.087
	C333.913,22.468,311.445,0,283.826,0z"/>
<path style="fill:#DAE1E6;" d="M283.826,0H183.652v233.739h150.261V50.087C333.913,22.468,311.445,0,283.826,0z"/>
<path style="fill:#E6563A;" d="M332.891,500.87c0.621-1.749,1.022-3.603,1.022-5.565V200.348H33.391v294.956
	c0,1.962,0.401,3.817,1.022,5.565H332.891z"/>
<path style="fill:#D9472B;" d="M332.891,500.87c0.621-1.749,1.022-3.603,1.022-5.565V200.348H183.652V500.87H332.891z"/>
<g>
	<path style="fill:#736056;" d="M350.609,512H16.696C7.479,512,0,504.527,0,495.304s7.479-16.696,16.696-16.696h333.913
		c9.217,0,16.696,7.473,16.696,16.696S359.826,512,350.609,512z"/>
	<path style="fill:#736056;" d="M350.609,478.609H183.652V512h166.957c9.217,0,16.696-7.473,16.696-16.696
		S359.826,478.609,350.609,478.609z"/>
</g>
<path style="fill:#FF9F19;" d="M183.652,411.826c-27.619,0-50.087-22.468-50.087-50.087c0-8.761,2.304-17.397,6.674-24.973
	l28.957-50.157c2.979-5.163,8.489-8.348,14.456-8.348c5.967,0,11.478,3.184,14.456,8.348l28.946,50.147
	c0,0.006,0.011,0.006,0.011,0.006c4.37,7.581,6.674,16.217,6.674,24.978C233.739,389.358,211.271,411.826,183.652,411.826z"/>
<path style="fill:#F28618;" d="M233.739,361.739c0-8.761-2.304-17.397-6.674-24.973c0,0-0.011-0.006-0.011-0.011l-28.946-50.146
	c-2.979-5.163-8.489-8.348-14.456-8.348v133.565C211.271,411.826,233.739,389.358,233.739,361.739z"/>
<path style="fill:#736056;" d="M83.478,33.391h200.348c9.22,0,16.696,7.475,16.696,16.696v100.174
	c0,9.22-7.475,16.696-16.696,16.696H83.478c-9.22,0-16.696-7.475-16.696-16.696V50.087C66.783,40.867,74.258,33.391,83.478,33.391z"
	/>
<path style="fill:#665247;" d="M283.826,33.391H183.652v133.565h100.174c9.22,0,16.696-7.475,16.696-16.696V50.087
	C300.522,40.867,293.047,33.391,283.826,33.391z"/>
<g>
</g>
<g>
</g>
<g>
</g>
<g>
</g>
<g>
</g>
<g>
</g>
<g>
</g>
<g>
</g>
<g>
</g>
<g>
</g>
<g>
</g>
<g>
</g>
<g>
</g>
<g>
</g>
<g>
</g>
</svg>
